# xmcd
#
# Track frame offsets:
#	150
#	59872
#	104266
#	126410
#	199394
#	233872
#	258664
#	276552
#	341234
#
# Disc length: 4700 seconds
#
# Revision: 0
# Processed by: cddbd v1.5.1PL0 Copyright (c) Steve Scherf et al.
# Submitted via: audiograbber 1.83.01
#
DISCID=9e125a09
DTITLE=Edgar Krapp - Lionel Rogg - Werner Jacob - Wilhelm Krumbach - Die schöns
DTITLE=tern Orgelwerke - Sternstunden der Klassik -CD 2
DYEAR=2005
DGENRE=Orgelmusik
TTITLE0=Max Reger - Ein feste Burg ist unser Gott, op. 27
TTITLE1=Johann Pachelbel: Aria Sebaldina
TTITLE2=J.S.Bach. Allabreve D-dur, BWV 589
TTITLE3=J.S.Bach: Präluium und Fuge ES-dur, BWV 552
TTITLE4=Max Reger: Introduktion und Passacaglia d-moll
TTITLE5=J.S.Bach: Choralvorspiel "Wir glauben all an einen Gott"", BWV 740
TTITLE6=J.S.Bach: Choralvorspiel "Wie schön leuchtet der Morgenstern, BWV 739
TTITLE7=J.S.Bach: Passacaglia c-moll, BWV 739
TTITLE8=J.S.Bach: Allein Gott in der Höh' sei Ehr, BWV 715
EXTD=Bertelsmann Verlag- CD 2
EXTT0=
EXTT1=
EXTT2=
EXTT3=
EXTT4=
EXTT5=
EXTT6=
EXTT7=
EXTT8=
PLAYORDER=
